<?xml version="1.0" encoding="utf-8"?>
<!-- Generator: Adobe Illustrator 23.0.1, SVG Export Plug-In . SVG Version: 6.00 Build 0)  -->
<svg version="1.1" id="Layer_1" xmlns="http://www.w3.org/2000/svg" xmlns:xlink="http://www.w3.org/1999/xlink" x="0px" y="0px"
	 viewBox="0 0 1086.96 221.64" style="enable-background:new 0 0 1086.96 221.64;" xml:space="preserve">
<style type="text/css">
	.st0{fill:#AF2227;}
	.st1{fill:#C3595D;}
	.st2{fill:#CE797D;}
	.st3{fill:#EAC7C8;}
</style>
<path class="st0" d="M211.8,160.87c0.86-9.04,1.33-14.75,1.4-17.12c0.43-15.58,0.65-24.73,0.65-27.45V68.38
	c0-11.99-0.18-24.37-0.54-37.14c-0.29-8.61-0.69-13.42-1.19-14.43c-0.36-0.72-0.94-1.22-1.73-1.51c-1.08-0.5-6.07-0.76-14.96-0.76
	V8.19c16.23-2.01,27.51-4.53,33.83-7.54c0.93-0.43,1.65-0.65,2.16-0.65c0.5,0,0.9,0.16,1.18,0.49c0.29,0.32,0.43,0.77,0.43,1.34
	c0,0.5-0.07,1.22-0.21,2.15l-0.11,3.55c-0.36,12.84-0.58,23.78-0.65,32.82l-0.22,16.79v21.31l14.87-14.55
	c1.94-1.65,5.13-3.27,9.59-4.85c4.45-1.58,9.19-2.37,14.22-2.37c7.9,0,14.9,1.85,21.01,5.55c6.11,3.7,10.79,8.92,14.06,15.68
	c3.27,6.75,4.9,14.22,4.9,22.41c0,6.32-0.94,12.32-2.8,18c-1.87,5.67-4.27,10.74-7.22,15.19c-2.16,3.38-3.99,5.67-5.5,6.9
	l-15.73,11.31c-6.39,4.74-11.38,7.78-14.98,9.1c-3.59,1.33-8.19,1.99-13.79,1.99c-4.81,0-9.27-0.65-13.36-1.94
	c-4.09-1.29-8.44-3.56-13.04-6.79l-8.72,8.19L211.8,160.87 M231.85,91.37v40.4c0,3.59,0.2,5.89,0.59,6.9
	c0.4,1.01,1.6,2.34,3.61,3.99c3.02,2.51,6.52,4.53,10.51,6.04c3.98,1.51,8.21,2.26,12.66,2.26c10.42,0,18.42-4.02,24.03-12.07
	c5.6-8.05,8.4-18,8.4-29.85c0-8.41-1.33-15.44-3.99-21.12c-2.66-5.67-6.32-9.93-10.99-12.77c-4.67-2.83-9.91-4.25-15.73-4.25
	c-6.82,0-12.93,1.96-18.32,5.87C237.23,80.69,233.64,85.55,231.85,91.37"/>
<path class="st0" d="M324.72,71.76v-6.14c13.93-1.58,25.65-4.59,35.12-9.05l2.37,1.72c-0.57,15.3-0.86,27.01-0.86,35.13v19.61
	c0.36,18.68,0.58,28.77,0.65,30.28c0.07,3.59,0.47,6.21,1.19,7.87c0.36,0.65,0.83,1.2,1.4,1.67c0.57,0.47,1.43,0.85,2.58,1.13
	c0.43,0.07,4.42,0.18,11.96,0.32v6.15c-10.92-0.5-19.65-0.76-26.18-0.76c-5.75,0-15.16,0.25-28.23,0.76v-6.15l10.3-0.11
	c1.52-0.07,2.69-0.34,3.52-0.81c0.83-0.46,1.46-1.06,1.9-1.78c0.79-1.44,1.3-3.98,1.52-7.65c0-0.93,0.18-11.24,0.54-30.92V94.06
	c0-10.7-0.36-17.06-1.08-19.07c-0.43-1.08-1.2-1.89-2.31-2.43C337.99,72.03,333.2,71.76,324.72,71.76 M351.02,8.73
	c3.37,0,6.23,1.19,8.57,3.56c2.33,2.37,3.5,5.24,3.5,8.62c0,3.31-1.19,6.14-3.56,8.51c-2.37,2.37-5.21,3.56-8.51,3.56
	c-3.38,0-6.25-1.19-8.62-3.56c-2.37-2.37-3.56-5.21-3.56-8.51c0-3.38,1.19-6.25,3.56-8.62C344.77,9.91,347.64,8.73,351.02,8.73"/>
<path class="st0" d="M385.46,110.82c0-16.11,5.12-29.25,15.35-39.43c10.24-10.17,23.36-15.26,39.39-15.26
	c15.08,0,27.37,4.75,36.85,14.24c9.48,9.49,14.22,21.75,14.22,36.78c0,10.5-2.44,20.1-7.32,28.8c-4.89,8.7-11.78,15.51-20.69,20.44
	c-8.91,4.92-18.71,7.39-29.41,7.39c-8.33,0-15.39-1.4-21.17-4.21c-5.79-2.81-10.48-6.33-14.06-10.57
	c-3.59-4.24-6.32-8.59-8.19-13.05C387.11,128.11,385.46,119.74,385.46,110.82 M405.82,102.84c0,8.84,1.47,17.84,4.42,26.97
	c2.95,9.13,7.2,15.8,12.77,20.01c5.57,4.21,11.62,6.31,18.16,6.31c8.33,0,15.3-3.31,20.9-9.93c5.6-6.61,8.4-16.79,8.4-30.53
	c0-11.43-1.67-21.3-5.01-29.61c-3.34-8.31-7.6-14.17-12.77-17.58c-5.17-3.42-10.88-5.13-17.13-5.13c-8.84,0-16,3.2-21.5,9.6
	C408.57,79.36,405.82,89.32,405.82,102.84"/>
<path class="st0" d="M705.65,59.91c-6.39,0-13.76-0.25-22.09-0.75v6.46c7.54,0.72,11.87,1.46,12.98,2.21
	c1.11,0.75,1.67,1.81,1.67,3.18c0,0.86-0.15,1.87-0.43,3.02c-0.93,3.31-4.2,12.01-9.79,26.11c-5.6,14.1-9.51,23.67-11.73,28.71
	l-5.7,12.73c-2.81-6.26-6.26-14.42-10.36-24.5l-6.8-16.83c-2.52-6.26-5.18-13.81-7.98-22.66c-1.22-3.56-1.83-5.91-1.83-7.05
	c0-1.85,0.93-3.13,2.8-3.84c1.08-0.43,5.32-0.89,12.72-1.39v-6.14c-7.84,0.5-16,0.75-24.49,0.75c-23.65,0-45.55-1.08-45.55-1.08
	c-1.87,0-4.67-0.11-8.41-0.32c-9.55,13.77-16.95,24-22.19,30.67l-6.68,8.61l-7.98-12.58c-5.68-8.74-10.49-15.67-14.44-20.77
	c-2.3-2.8-4.82-5.46-7.54-7.97c-8.55,1.87-16.99,3.27-25.32,4.2l1.29,6.14c1.66-0.14,2.81-0.22,3.46-0.22c1.58,0,2.95,0.32,4.1,0.97
	c3.02,1.8,6.86,5.57,11.5,11.31c4.64,5.75,9.4,12.29,14.26,19.63l9.12,13.61l-25.21,30.87c-4.38,5.1-7.87,8.37-10.45,9.8
	c-1.94,1-4.63,1.51-8.08,1.51v6.15c2.87-0.5,6-0.76,9.37-0.76c3.45,0,6.61,0.25,9.49,0.76c11.85-18.35,21.77-32.17,29.74-41.45
	l16.38,24.61c3.66,5.4,7.79,11.01,12.39,16.84c4.67-0.5,9.12-0.76,13.36-0.76c4.02,0,8.55,0.25,13.58,0.76v-6.15
	c-3.16,0-5.28-0.22-6.36-0.65c-1.08-0.43-2.41-1.47-3.99-3.12c-3.09-3.31-8.39-10.15-15.9-20.55c-7.51-10.4-12.13-16.85-13.85-19.37
	l-3.99-6.04l6.66-8.67l10.31-12.31c7.56-9.25,13-14.99,16.32-17.22c1.58-1.08,19.42-0.7,22.59-0.46c2.66,0.2,4.45,0.98,5.44,1.58
	c1.47,0.89,2.86,2.66,4.15,5.31c3.23,6.72,7.4,16.4,12.51,29.03l17.16,42.43c3.24,8.04,6.01,15.29,8.31,21.75
	c-3.02,7.98-6.42,15.82-10.23,23.51c-2.51,5.1-4.69,8.69-6.52,10.77c-1.83,2.08-3.8,3.61-5.93,4.58c-2.12,0.97-4.29,1.46-6.52,1.46
	c-2.15,0-3.79-0.18-4.9-0.54c-1.12-0.36-2.16-0.88-3.13-1.56c-0.97-0.68-2.14-1.6-3.5-2.75h-2.59l-5.5,16.59
	c2.37,1.29,4.51,2.21,6.41,2.75c1.9,0.54,4.04,0.81,6.41,0.81c4.88,0,9.37-1.04,13.47-3.12c4.1-2.09,7.61-5.14,10.56-9.16
	c2.94-4.02,6.42-10.74,10.43-20.16l24.9-58.18c10.99-24.13,18.52-40.31,22.58-48.54c4.06-8.22,7.09-13.05,9.1-14.49
	c2.01-1.44,4.85-2.23,8.51-2.37l1.08-6.46C718.5,59.66,712.11,59.91,705.65,59.91"/>
<path class="st0" d="M787.5,14.11V7.97c7.97-0.86,14.71-1.89,20.2-3.07c5.5-1.19,10.86-2.64,16.11-4.36l1.4,0.97
	c-0.29,6.11-0.61,17.89-0.97,35.34l-0.43,17.24v67.45c0,7.33,0.12,13.67,0.38,19.02c0.25,5.35,0.7,8.55,1.35,9.59
	c0.65,1.04,1.72,1.89,3.23,2.53c1.51,0.65,5.99,1.29,13.47,1.94v5.82c-8.76-0.5-14.94-0.76-18.53-0.76c-3.09,0-9.41,0.25-18.96,0.76
	c0.22-4.96,0.39-11.64,0.54-20.04c-2.87,2.09-6.73,5.21-11.59,9.37c-4.85,4.17-8.63,7.58-11.36,10.24
	c-5.75,1.43-10.81,2.16-15.19,2.16c-8.12,0-15.59-2.01-22.41-6.03c-6.82-4.02-12.09-9.86-15.78-17.51
	c-3.7-7.65-5.55-16.25-5.55-25.81c0-7.18,1.13-13.99,3.39-20.42c2.26-6.43,5.12-11.4,8.57-14.92c1.94-2.01,6.36-5.06,13.25-9.16
	c6.9-4.1,12.48-7.06,16.76-8.89c4.27-1.83,8.93-2.75,13.95-2.75c4.53,0,8.96,0.56,13.3,1.67c4.35,1.12,8.57,2.82,12.66,5.12V35.13
	c0-9.99-0.43-16.06-1.29-18.21c-0.29-0.79-0.83-1.36-1.62-1.72C800.93,14.54,795.97,14.19,787.5,14.11 M805.27,81.87
	c-4.89-5.38-10-9.31-15.35-11.78c-5.35-2.48-10.61-3.71-15.79-3.71c-5.89,0-11.31,1.51-16.27,4.52c-4.95,3.01-8.75,7.57-11.36,13.67
	c-2.63,6.1-3.93,13.42-3.93,21.95c0,13.13,3.27,23.38,9.8,30.77c6.53,7.39,14.4,11.08,23.59,11.08c4.81,0,9.12-1,12.93-3.01
	c3.8-2.01,7.15-4.95,10.03-8.82c2.88-3.87,4.71-8.18,5.5-12.91c0.57-3.15,0.86-10.94,0.86-23.35V81.87z"/>
<path class="st0" d="M842.05,218.08l5.5-16.59h2.59c1.36,1.15,2.53,2.07,3.5,2.75c0.97,0.68,2.01,1.2,3.13,1.56
	c1.11,0.36,2.75,0.54,4.9,0.54c2.23,0,4.4-0.48,6.52-1.45c2.12-0.97,4.09-2.5,5.92-4.58c1.83-2.09,4-5.68,6.52-10.78
	c3.8-7.69,7.21-15.53,10.23-23.51c-2.3-6.46-5.07-13.71-8.31-21.75l-17.16-42.43c-5.11-12.64-9.28-22.31-12.51-29.03
	c-1.29-2.65-2.68-4.42-4.15-5.31c-1.47-0.89-4.76-1.63-9.86-2.2v-6.14c8.92,0.5,17.73,0.75,26.43,0.75c8.49,0,16.65-0.25,24.49-0.75
	v6.14c-7.4,0.5-11.64,0.96-12.71,1.39c-1.87,0.71-2.8,1.99-2.8,3.84c0,1.14,0.61,3.49,1.83,7.05c2.81,8.85,5.47,16.4,7.99,22.66
	l6.8,16.83c4.1,10.07,7.55,18.24,10.36,24.5l5.7-12.73c2.23-5.04,6.13-14.6,11.73-28.7c5.59-14.1,8.86-22.8,9.8-26.11
	c0.28-1.15,0.43-2.16,0.43-3.02c0-1.36-0.56-2.42-1.67-3.18c-1.11-0.75-5.44-1.49-12.98-2.21v-6.46c8.33,0.5,15.69,0.75,22.09,0.75
	c6.47,0,12.86-0.25,19.18-0.75l-1.08,6.46c-3.66,0.14-6.5,0.94-8.51,2.37c-2.01,1.44-5.05,6.27-9.11,14.49
	c-4.06,8.22-11.59,24.4-22.58,48.54l-24.91,58.18c-4.01,9.41-7.49,16.13-10.43,20.16c-2.95,4.02-6.46,7.07-10.56,9.16
	c-4.09,2.08-8.58,3.12-13.47,3.12c-2.37,0-4.51-0.27-6.41-0.81C846.56,220.29,844.42,219.37,842.05,218.08"/>
<path class="st0" d="M962.94,160.44v-6.14l10.3-0.11c1.52-0.07,2.69-0.34,3.52-0.81c0.83-0.46,1.46-1.06,1.9-1.78
	c0.79-1.43,1.3-3.99,1.52-7.65c0-0.93,0.18-11.24,0.54-30.92v-12.82c0-5.75-0.11-11.92-0.32-18.53c-0.21-4.24-0.56-6.75-1.02-7.54
	c-0.47-0.79-1.28-1.38-2.43-1.78c-1.15-0.4-5.82-0.56-14.01-0.49v-6.14c14.51-2.01,25.11-4.63,31.79-7.87
	c1.43-0.72,2.4-1.08,2.91-1.08c0.5,0,0.9,0.18,1.18,0.54c0.29,0.36,0.43,0.9,0.43,1.62c0,0.5-0.04,1.08-0.11,1.72
	c-0.21,2.59-0.43,8.05-0.64,16.38l20.04-17.13c5.89-2.15,11.46-3.23,16.7-3.23c5.82,0,11.33,1.18,16.54,3.55
	c5.21,2.37,9.12,5.35,11.75,8.94c2.62,3.59,4.36,8.12,5.22,13.58c0.5,3.23,0.75,12.24,0.75,27.04v19.07c0,9.34,0.25,15.7,0.76,19.07
	c0.36,2.16,0.91,3.65,1.67,4.47c0.75,0.83,1.92,1.35,3.5,1.56l11.53,0.32v6.14c-7.04-0.5-12.89-0.75-17.56-0.75
	c-4.03,0-10.7,0.25-20.04,0.75c1-17.74,1.51-28.95,1.51-33.62v-18.1c0-11.28-0.43-18.67-1.29-22.2c-1.22-4.81-3.99-8.69-8.3-11.64
	c-4.31-2.94-9.52-4.42-15.62-4.42c-5.39,0-10.31,1.28-14.77,3.82c-4.45,2.55-7.63,5.49-9.54,8.83c-1.9,3.34-2.85,8.96-2.85,16.86
	v13.04c0.36,18.68,0.54,28.77,0.54,30.28c0.15,3.59,0.58,6.22,1.3,7.87c0.29,0.65,0.72,1.2,1.29,1.67c0.58,0.47,1.49,0.85,2.72,1.13
	c0.43,0.07,4.4,0.18,11.92,0.32v6.14c-8.76-0.5-16.7-0.75-23.81-0.75C986.43,159.69,976.59,159.94,962.94,160.44"/>
<path class="st0" d="M11.94,58.93h16.82h15.66c6.6,0,11.95,5.35,11.95,11.95c0-6.6,5.35-11.95,11.94-11.95
	c-6.6,0-11.94-5.35-11.94-11.94V14.5c0,0,0,0,0,0c0-6.6-5.35-11.94-11.95-11.94H11.94C5.35,2.56,0,7.91,0,14.5v32.48
	C0,53.58,5.35,58.93,11.94,58.93z"/>
<path class="st1" d="M157.16,115.3L157.16,115.3h-15.37h-17.11c-6.6,0-11.94-5.35-11.94-11.94c0,6.6-5.35,11.94-11.95,11.94l0,0
	c6.6,0,11.95,5.35,11.95,11.95v10l0,0v22.48c0,6.6,5.35,11.94,11.94,11.94h32.48c6.6,0,11.94-5.35,11.94-11.94v-32.48
	C169.11,120.64,163.76,115.3,157.16,115.3z"/>
<path class="st2" d="M68.31,2.56h32.48c6.6,0,11.94,5.35,11.94,11.94v32.48c0,6.6-5.35,11.94-11.94,11.94H68.31
	c-6.6,0-11.94-5.35-11.94-11.94V14.5C56.37,7.91,61.72,2.56,68.31,2.56z"/>
<path class="st0" d="M56.37,159.72v-32.48c0-6.6,5.35-11.95,11.94-11.95l0,0c-6.6,0-11.94-5.35-11.94-11.94V92.49l0,0v10.86
	c0,6.6-5.35,11.94-11.95,11.94H28.76H11.94C5.35,115.3,0,120.64,0,127.24v32.48c0,6.6,5.35,11.94,11.94,11.94h32.48
	C51.02,171.67,56.37,166.32,56.37,159.72C56.37,159.72,56.37,159.72,56.37,159.72z"/>
<path class="st0" d="M124.68,58.93h32.48c6.6,0,11.94,5.35,11.94,11.94v32.48c0,6.6-5.35,11.94-11.94,11.94h-32.48
	c-6.6,0-11.94-5.35-11.94-11.94V70.87C112.74,64.28,118.09,58.93,124.68,58.93z"/>
<g>
	<path class="st2" d="M11.94,58.93h32.48c6.6,0,11.94,5.35,11.94,11.94v32.48c0,6.6-5.35,11.94-11.94,11.94H11.94
		C5.35,115.3,0,109.95,0,103.35V70.87C0,64.28,5.35,58.93,11.94,58.93z"/>
	<g>
		<path class="st3" d="M112.74,103.35V70.87c0-6.6,5.35-11.95,11.94-11.95h17.11h15.37l0,0c6.6,0,11.94-5.35,11.94-11.94V14.5
			c0-6.6-5.35-11.94-11.94-11.94h-32.48c-6.6,0-11.94,5.35-11.94,11.94v21.54l0,0v10.94c0,6.6-5.35,11.94-11.95,11.94H88.11H68.31
			c-6.6,0-11.94,5.35-11.94,11.95v32.48c0,6.6,5.35,11.94,11.94,11.94h32.48C107.39,115.3,112.74,109.95,112.74,103.35
			C112.74,103.35,112.74,103.35,112.74,103.35z"/>
	</g>
	<path class="st2" d="M68.31,115.3h32.48c6.6,0,11.94,5.35,11.94,11.94v32.48c0,6.6-5.35,11.94-11.94,11.94H68.31
		c-6.6,0-11.94-5.35-11.94-11.94v-32.48C56.37,120.64,61.72,115.3,68.31,115.3z"/>
</g>
</svg>
