<?xml version="1.0" encoding="utf-8"?>
<!-- Generator: Adobe Illustrator 23.0.1, SVG Export Plug-In . SVG Version: 6.00 Build 0)  -->
<svg version="1.1" id="Layer_1" xmlns="http://www.w3.org/2000/svg" xmlns:xlink="http://www.w3.org/1999/xlink" x="0px" y="0px"
	 viewBox="0 0 253 253" style="enable-background:new 0 0 253 253;" xml:space="preserve">
<style type="text/css">
	.st0{fill:#A3A3A3;}
	.st1{fill:#FFFFFF;}
	.st2{fill:#282828;}
</style>
<circle class="st0" cx="127.6" cy="126.5" r="117"/>
<path class="st1" d="M159.91,81.35c4.9,0,51.56,18.06,51.56,31.2v68.28c0,4.9-3.97,8.87-8.87,8.87H50.39c-4.9,0-8.87-3.97-8.87-8.87
	v-68.28c0-4.9,46.15-31.2,46.15-31.2"/>
<path class="st2" d="M207.28,108.57c-0.53,0-1.06-0.12-1.56-0.37l-79.18-40.08l-78.19,40.07c-1.7,0.87-3.79,0.2-4.67-1.5
	c-0.87-1.7-0.2-3.79,1.5-4.67l79.76-40.88c0.99-0.51,2.16-0.51,3.15-0.01l80.75,40.88c1.71,0.87,2.39,2.95,1.53,4.66
	C209.77,107.87,208.55,108.57,207.28,108.57z"/>
<path class="st1" d="M72.47,120.61V72.06c0-4.85,3.93-8.77,8.78-8.77h92.61c4.84,0,8.77,3.93,8.77,8.77v48.54"/>
<path class="st2" d="M202.61,193.38H50.39c-6.92,0-12.54-5.63-12.54-12.55v-68.28c0-6.92,5.63-12.54,12.54-12.54v7.34
	c-2.87,0-5.2,2.33-5.2,5.2v68.28c0,2.87,2.33,5.2,5.2,5.2h152.22c2.87,0,5.2-2.33,5.2-5.2v-68.28c0-2.87-2.33-5.2-5.2-5.2v-7.34
	c6.92,0,12.54,5.63,12.54,12.54v68.28C215.15,187.75,209.52,193.38,202.61,193.38z"/>
<path class="st2" d="M186.3,120.61h-7.34V72.06c0-2.81-2.29-5.1-5.1-5.1H81.24c-2.81,0-5.1,2.29-5.1,5.1v48.54H68.8V72.06
	c0-6.86,5.58-12.45,12.45-12.45h92.61c6.86,0,12.45,5.58,12.45,12.45V120.61z"/>
<path class="st2" d="M126.53,151.85c-0.54,0-1.09-0.13-1.58-0.38l-79.76-40.88c-1.7-0.87-2.38-2.96-1.5-4.67
	c0.88-1.7,2.97-2.37,4.67-1.5l78.19,40.07l79.18-40.08c1.71-0.86,3.79-0.18,4.66,1.53c0.86,1.71,0.18,3.79-1.53,4.66l-80.75,40.88
	C127.6,151.73,127.07,151.85,126.53,151.85z"/>
<path class="st2" d="M166.91,88.13H86.65c-1.91,0-3.47-1.55-3.47-3.47s1.55-3.47,3.47-3.47h80.26c1.91,0,3.47,1.55,3.47,3.47
	S168.82,88.13,166.91,88.13z"/>
<path class="st2" d="M166.91,102.82H86.65c-1.91,0-3.47-1.55-3.47-3.47s1.55-3.47,3.47-3.47h80.26c1.91,0,3.47,1.55,3.47,3.47
	S168.82,102.82,166.91,102.82z"/>
<path class="st2" d="M166.91,117.5H86.65c-1.91,0-3.47-1.55-3.47-3.47s1.55-3.47,3.47-3.47h80.26c1.91,0,3.47,1.55,3.47,3.47
	S168.82,117.5,166.91,117.5z"/>
<path class="st2" d="M161.66,132.19H90.3c-1.91,0-3.47-1.55-3.47-3.47s1.55-3.47,3.47-3.47h71.36c1.91,0,3.47,1.55,3.47,3.47
	S163.57,132.19,161.66,132.19z"/>
<path class="st2" d="M126.5,253C56.75,253,0,196.25,0,126.5S56.75,0,126.5,0S253,56.75,253,126.5S196.25,253,126.5,253z M126.5,16
	C65.57,16,16,65.57,16,126.5S65.57,237,126.5,237S237,187.43,237,126.5S187.43,16,126.5,16z"/>
</svg>
