<?xml version="1.0" encoding="utf-8"?>
<!-- Generator: Adobe Illustrator 23.0.1, SVG Export Plug-In . SVG Version: 6.00 Build 0)  -->
<svg version="1.1" id="Layer_1" xmlns="http://www.w3.org/2000/svg" xmlns:xlink="http://www.w3.org/1999/xlink" x="0px" y="0px"
	 viewBox="0 0 169.8 42" style="enable-background:new 0 0 169.8 42;" xml:space="preserve">
<style type="text/css">
	.st0{fill:#494949;}
</style>
<g>
	<path class="st0" d="M54.3,18.1c-0.3-0.4-0.6-0.7-1.1-0.9c-0.4-0.2-0.9-0.3-1.4-0.3S51,17,50.6,17.2c-0.4,0.2-0.8,0.5-1.1,0.9
		S49,19,48.8,19.6c-0.2,0.5-0.2,1.2-0.2,1.8c0,0.7,0.1,1.3,0.2,1.8c0.2,0.5,0.4,1,0.7,1.4c0.3,0.4,0.6,0.7,1.1,0.9
		c0.4,0.2,0.9,0.3,1.4,0.3s0.9-0.1,1.4-0.3c0.4-0.2,0.8-0.5,1.1-0.9c0.3-0.4,0.5-0.9,0.7-1.4s0.2-1.1,0.2-1.8c0-0.7-0.1-1.3-0.2-1.8
		C54.9,19,54.6,18.5,54.3,18.1z"/>
	<path class="st0" d="M83.5,22.2c-0.4,0.2-0.7,0.5-0.9,0.8s-0.3,0.6-0.3,1c0,0.7,0.2,1.1,0.6,1.4c0.4,0.3,0.9,0.4,1.4,0.4
		c0.6,0,1.1-0.1,1.6-0.4c0.5-0.3,1-0.6,1.6-1.2v-3.2c-1,0.1-1.8,0.3-2.5,0.5C84.4,21.7,83.9,21.9,83.5,22.2z"/>
	<path class="st0" d="M160.9,0H8.9C4,0,0,4,0,8.9v24.2C0,38,4,42,8.9,42h152c4.9,0,8.9-4,8.9-8.9V8.9C169.8,4,165.8,0,160.9,0z
		 M42.6,26.8c-0.8,0.4-1.7,0.6-2.7,0.6c-1,0-1.9-0.2-2.7-0.5c-0.8-0.4-1.6-0.9-2.2-1.6c-0.6-0.7-1.1-1.5-1.4-2.5
		c-0.3-1-0.5-2.1-0.5-3.4c0-1.3,0.2-2.4,0.5-3.4c0.3-1,0.8-1.8,1.5-2.5c0.6-0.7,1.4-1.2,2.2-1.6c0.8-0.4,1.8-0.6,2.8-0.6
		c1,0,1.8,0.2,2.5,0.6c0.7,0.4,1.3,0.8,1.8,1.3l-1.1,1.3c-0.4-0.4-0.9-0.8-1.4-1.1c-0.5-0.3-1.1-0.4-1.8-0.4c-0.7,0-1.4,0.1-2,0.4
		s-1.1,0.7-1.5,1.3c-0.4,0.5-0.8,1.2-1,2c-0.2,0.8-0.4,1.7-0.4,2.6c0,1,0.1,1.9,0.3,2.7c0.2,0.8,0.6,1.5,1,2c0.4,0.6,0.9,1,1.5,1.3
		c0.6,0.3,1.3,0.5,2,0.5c0.8,0,1.4-0.2,2-0.5c0.6-0.3,1.1-0.7,1.6-1.3l1.1,1.2C44.1,25.9,43.4,26.4,42.6,26.8z M56.8,23.9
		c-0.3,0.8-0.7,1.4-1.2,1.9c-0.5,0.5-1.1,0.9-1.7,1.2c-0.6,0.3-1.3,0.4-2,0.4c-0.7,0-1.4-0.1-2-0.4s-1.2-0.7-1.7-1.2
		c-0.5-0.5-0.9-1.2-1.2-1.9c-0.3-0.8-0.4-1.6-0.4-2.6c0-1,0.1-1.8,0.4-2.6c0.3-0.8,0.7-1.4,1.2-1.9c0.5-0.5,1.1-0.9,1.7-1.2
		s1.3-0.4,2-0.4c0.7,0,1.4,0.1,2,0.4c0.6,0.3,1.2,0.7,1.7,1.2c0.5,0.5,0.9,1.2,1.2,1.9c0.3,0.8,0.4,1.6,0.4,2.6
		C57.3,22.3,57.1,23.2,56.8,23.9z M69.6,27.1h-2v-7.1c0-1.1-0.2-1.9-0.5-2.4c-0.3-0.5-0.9-0.7-1.7-0.7c-0.6,0-1.1,0.2-1.6,0.5
		c-0.5,0.3-1,0.7-1.6,1.3v8.4h-2V15.6H62l0.2,1.7h0.1c0.6-0.6,1.1-1,1.8-1.4c0.6-0.4,1.3-0.6,2.1-0.6c1.2,0,2.1,0.4,2.7,1.1
		c0.6,0.8,0.8,1.9,0.8,3.4V27.1z M78.1,27.3c-0.4,0.1-0.7,0.1-1.1,0.1c-0.6,0-1.1-0.1-1.6-0.3s-0.8-0.5-1-0.8
		c-0.3-0.3-0.4-0.7-0.6-1.2c-0.1-0.5-0.2-1-0.2-1.6v-6.4H72v-1.5l1.8-0.1l0.2-3.2h1.6v3.2h3.1v1.6h-3.1v6.4c0,0.7,0.1,1.3,0.4,1.7
		c0.3,0.4,0.7,0.6,1.4,0.6c0.2,0,0.4,0,0.7-0.1s0.5-0.1,0.6-0.2l0.4,1.5C78.8,27.1,78.5,27.2,78.1,27.3z M89.5,27.1h-1.6l-0.2-1.4h0
		c-0.6,0.5-1.2,0.9-1.8,1.2s-1.3,0.5-2,0.5c-1,0-1.8-0.3-2.4-0.9c-0.6-0.6-1-1.4-1-2.4c0-1.3,0.6-2.2,1.7-2.9
		c1.1-0.7,2.9-1.1,5.4-1.4c0-0.4,0-0.7-0.1-1.1c-0.1-0.3-0.2-0.7-0.4-0.9c-0.2-0.3-0.4-0.5-0.7-0.7c-0.3-0.2-0.7-0.2-1.2-0.2
		c-0.7,0-1.3,0.1-1.9,0.4c-0.6,0.3-1.1,0.5-1.6,0.9l-0.8-1.4c0.5-0.3,1.2-0.7,2-1c0.8-0.3,1.6-0.5,2.6-0.5c1.4,0,2.4,0.4,3.1,1.3
		c0.6,0.9,1,2,1,3.5V27.1z M99.8,27c-0.6,0.3-1.3,0.4-2,0.4c-0.8,0-1.5-0.1-2.1-0.4s-1.2-0.7-1.7-1.2c-0.5-0.5-0.9-1.2-1.1-1.9
		c-0.3-0.8-0.4-1.6-0.4-2.6c0-1,0.2-1.8,0.5-2.6c0.3-0.8,0.7-1.4,1.2-1.9c0.5-0.5,1.1-0.9,1.8-1.2s1.4-0.4,2.1-0.4
		c0.8,0,1.4,0.1,2,0.4c0.5,0.3,1,0.6,1.4,1l-1,1.3c-0.3-0.3-0.7-0.5-1.1-0.7c-0.4-0.2-0.8-0.3-1.2-0.3c-0.5,0-1,0.1-1.5,0.3
		c-0.4,0.2-0.8,0.5-1.1,0.9c-0.3,0.4-0.6,0.9-0.8,1.4c-0.2,0.5-0.3,1.2-0.3,1.8c0,0.7,0.1,1.3,0.3,1.8s0.4,1,0.7,1.4
		c0.3,0.4,0.7,0.7,1.1,0.9c0.4,0.2,0.9,0.3,1.5,0.3c0.6,0,1.1-0.1,1.5-0.3c0.5-0.2,0.9-0.5,1.2-0.8l0.9,1.3
		C101,26.4,100.4,26.8,99.8,27z M108.8,27.3c-0.4,0.1-0.7,0.1-1.1,0.1c-0.6,0-1.1-0.1-1.6-0.3s-0.8-0.5-1-0.8
		c-0.3-0.3-0.4-0.7-0.6-1.2s-0.2-1-0.2-1.6v-6.4h-1.7v-1.5l1.8-0.1l0.2-3.2h1.6v3.2h3.1v1.6h-3.1v6.4c0,0.7,0.1,1.3,0.4,1.7
		c0.3,0.4,0.7,0.6,1.4,0.6c0.2,0,0.4,0,0.7-0.1s0.5-0.1,0.6-0.2l0.4,1.5C109.5,27.1,109.2,27.2,108.8,27.3z M126,27.1h-1.6l-0.2-1.8
		h-0.1c-0.5,0.6-1.1,1.1-1.7,1.5c-0.6,0.4-1.3,0.6-2.1,0.6c-1.2,0-2.1-0.4-2.7-1.1c-0.6-0.8-0.8-1.9-0.8-3.4v-7.3h2v7.1
		c0,1.1,0.2,1.9,0.5,2.4s0.9,0.7,1.7,0.7c0.6,0,1.1-0.2,1.6-0.5c0.5-0.3,1-0.8,1.5-1.5v-8.2h2V27.1z M136.9,25.3
		c-0.2,0.4-0.5,0.8-0.8,1.1c-0.4,0.3-0.8,0.6-1.3,0.8c-0.5,0.2-1.1,0.3-1.8,0.3c-0.8,0-1.6-0.2-2.4-0.5c-0.7-0.3-1.4-0.7-2-1.1
		l1-1.3c0.5,0.4,1,0.7,1.6,1c0.5,0.3,1.1,0.4,1.8,0.4c0.8,0,1.3-0.2,1.7-0.5s0.6-0.8,0.6-1.3c0-0.3-0.1-0.6-0.2-0.8
		c-0.2-0.2-0.4-0.4-0.6-0.6s-0.5-0.3-0.8-0.4c-0.3-0.1-0.6-0.3-1-0.4c-0.4-0.1-0.8-0.3-1.2-0.5s-0.8-0.4-1.1-0.7
		c-0.3-0.3-0.6-0.6-0.8-0.9c-0.2-0.3-0.3-0.8-0.3-1.3c0-0.5,0.1-0.9,0.3-1.3s0.4-0.8,0.8-1c0.3-0.3,0.8-0.5,1.3-0.7
		c0.5-0.2,1-0.3,1.7-0.3c0.7,0,1.4,0.1,2,0.4c0.6,0.3,1.1,0.6,1.6,0.9l-0.9,1.2c-0.4-0.3-0.8-0.5-1.2-0.7s-0.9-0.3-1.4-0.3
		c-0.7,0-1.3,0.2-1.6,0.5S131,18,131,18.5c0,0.3,0.1,0.5,0.2,0.7c0.1,0.2,0.3,0.4,0.6,0.5c0.2,0.2,0.5,0.3,0.8,0.4s0.6,0.2,1,0.4
		c0.4,0.2,0.8,0.3,1.3,0.5c0.4,0.2,0.8,0.4,1.1,0.7c0.3,0.3,0.6,0.6,0.8,1c0.2,0.4,0.3,0.8,0.3,1.4C137.1,24.5,137,24.9,136.9,25.3z
		"/>
</g>
</svg>
