<?xml version="1.0" encoding="utf-8"?>
<!-- Generator: Adobe Illustrator 23.0.1, SVG Export Plug-In . SVG Version: 6.00 Build 0)  -->
<svg version="1.1" id="Layer_1" xmlns="http://www.w3.org/2000/svg" xmlns:xlink="http://www.w3.org/1999/xlink" x="0px" y="0px"
	 viewBox="0 0 800 800" style="enable-background:new 0 0 800 800;" xml:space="preserve">
<style type="text/css">
	.st0{fill:#FFFFFF;}
	.st1{fill:#4E4D4D;}
	.st2{fill:none;stroke:#878787;stroke-width:21.1496;stroke-miterlimit:10;}
	.st3{fill:none;stroke:#878787;stroke-width:19.9708;stroke-linecap:round;stroke-linejoin:round;stroke-miterlimit:10;}
</style>
<path class="st0" d="M169.45-1.15h460.73c93.58,0,169.45,75.87,169.45,169.45v460.73c0,93.58-75.87,169.45-169.45,169.45H169.45
	C75.87,798.47,0,722.61,0,629.03V168.3C0,74.72,75.87-1.15,169.45-1.15"/>
<path class="st1" d="M630.18-1.15H169.45C75.87-1.15,0,74.71,0,168.3v460.73c0,93.58,75.87,169.45,169.45,169.45h460.73
	c93.58,0,169.45-75.87,169.45-169.45V168.3C799.62,74.71,723.76-1.15,630.18-1.15 M769.8,629.03c0,76.99-62.63,139.62-139.62,139.62
	H169.45c-76.99,0-139.63-62.63-139.63-139.62V168.3c0-76.99,62.64-139.63,139.63-139.63h460.73c76.99,0,139.62,62.63,139.62,139.63
	V629.03z"/>
<path class="st0" d="M616.3,332.02c14.11,0,25.55,11.44,25.55,25.55v196.64c0,14.12-11.44,25.55-25.55,25.55H177.97
	c-14.11,0-25.55-11.44-25.55-25.55V357.57c0-14.11,11.44-25.55,25.55-25.55"/>
<path class="st2" d="M616.3,332.02c14.11,0,25.55,11.44,25.55,25.55v196.64c0,14.12-11.44,25.55-25.55,25.55H177.97
	c-14.11,0-25.55-11.44-25.55-25.55V357.57c0-14.11,11.44-25.55,25.55-25.55"/>
<polyline class="st3" points="167.53,336.11 397.22,218.39 629.77,336.11 "/>
<path class="st0" d="M241.54,380.77v-139.8c0-13.96,11.31-25.26,25.27-25.26H533.5c13.95,0,25.26,11.31,25.26,25.26v139.8"/>
<path class="st2" d="M241.54,380.77v-139.8c0-13.96,11.31-25.26,25.27-25.26H533.5c13.95,0,25.26,11.31,25.26,25.26v139.8"/>
<polyline class="st3" points="167.53,343.04 397.22,460.76 629.77,343.04 "/>
<line class="st3" x1="282.37" y1="277.25" x2="513.49" y2="277.25"/>
<line class="st3" x1="282.37" y1="319.55" x2="513.49" y2="319.55"/>
<line class="st3" x1="282.37" y1="361.85" x2="513.49" y2="361.85"/>
<line class="st3" x1="292.9" y1="404.14" x2="498.38" y2="404.14"/>
</svg>
