<?xml version="1.0" encoding="utf-8"?>
<!-- Generator: Adobe Illustrator 23.0.1, SVG Export Plug-In . SVG Version: 6.00 Build 0)  -->
<svg version="1.1" id="Layer_1" xmlns="http://www.w3.org/2000/svg" xmlns:xlink="http://www.w3.org/1999/xlink" x="0px" y="0px"
	 viewBox="0 0 200 200" style="enable-background:new 0 0 200 200;" xml:space="preserve">
<style type="text/css">
	.st0{fill:#FFFFFF;}
</style>
<path class="st0" d="M166.53,0c9.24,0,17.11,3.25,23.62,9.76c6.51,6.51,9.76,14.38,9.76,23.62v133.15c0,9.24-3.25,17.12-9.76,23.62
	c-6.51,6.51-14.38,9.76-23.62,9.76h-41.58v-87.46h28.11l6.25-24.99h-34.36V68.72c0-1.69,0.62-3.15,1.85-4.39
	c1.24-1.24,2.7-1.85,4.39-1.85h31.24V37.48h-31.24c-8.59,0-15.94,3.06-22.06,9.18c-6.12,6.12-9.18,13.47-9.18,22.06v18.74H74.97
	v24.99h24.99v87.46H33.38c-9.24,0-17.12-3.25-23.62-9.76C3.25,183.65,0,175.77,0,166.53V33.38c0-9.24,3.25-17.11,9.76-23.62
	C16.27,3.25,24.14,0,33.38,0H166.53z"/>
</svg>
