<?xml version="1.0" encoding="utf-8"?>
<!-- Generator: Adobe Illustrator 23.0.1, SVG Export Plug-In . SVG Version: 6.00 Build 0)  -->
<svg version="1.1" id="Layer_1" xmlns="http://www.w3.org/2000/svg" xmlns:xlink="http://www.w3.org/1999/xlink" x="0px" y="0px"
	 viewBox="0 0 253 253" style="enable-background:new 0 0 253 253;" xml:space="preserve">
<style type="text/css">
	.st0{fill:#A3A3A3;}
	.st1{fill:#7A7979;}
	.st2{fill:#B01B1A;}
	.st3{fill:#1D1D1B;}
	.st4{fill:#053230;}
	.st5{fill:#D5ECEC;}
	.st6{fill:none;}
	.st7{fill:#FFFFFF;}
</style>
<circle class="st0" cx="123" cy="127" r="117"/>
<path class="st1" d="M117.41,144.05C87.29,121.47,46.3,82.77,56.83,68.73l5.25,3.94c-3.63,4.85,13.52,31.83,59.26,66.14
	L117.41,144.05z"/>
<path class="st1" d="M197.31,184.88c-5.93,0-14.12-2.32-24.51-6.94c-16.21-7.22-35.88-19.25-55.39-33.88l3.94-5.25
	c19.12,14.34,38.34,26.11,54.12,33.13c17.72,7.89,24.74,6.87,25.97,5.23l5.25,3.94C204.81,183.62,201.67,184.88,197.31,184.88z"/>
<path class="st2" d="M130.26,97.06c-1.38,3.97-5.71,6.07-9.67,4.69s-6.06-5.71-4.69-9.67c1.38-3.96,5.71-6.06,9.67-4.69
	C129.54,88.76,131.64,93.1,130.26,97.06"/>
<path class="st3" d="M130.26,97.06l0.07,0.02c-1.1,3.17-4.07,5.16-7.25,5.16c-0.84,0-1.68-0.14-2.52-0.43
	c-3.17-1.1-5.16-4.07-5.16-7.25c0-0.83,0.14-1.68,0.42-2.52c1.1-3.17,4.07-5.16,7.25-5.16c0.84,0,1.68,0.14,2.52,0.43
	c3.17,1.1,5.16,4.07,5.16,7.24c0,0.84-0.14,1.68-0.42,2.52L130.26,97.06l-0.06-0.02c0.28-0.82,0.42-1.65,0.42-2.47
	c0-3.12-1.95-6.03-5.06-7.11c-0.82-0.28-1.65-0.42-2.47-0.42c-3.12,0-6.03,1.95-7.11,5.06c-0.28,0.82-0.42,1.65-0.42,2.47
	c0,3.12,1.95,6.04,5.06,7.11c0.82,0.29,1.65,0.42,2.47,0.42c3.12,0,6.04-1.95,7.12-5.06L130.26,97.06"/>
<path class="st1" d="M35.5,137.02c-0.1-0.59-0.14-1.18-0.14-1.77c0-1.25,0.2-2.49,0.58-3.68c0.71-2.24,1.98-4.33,3.65-6.33
	c1.47-1.74,3.26-3.42,5.34-5.06c3.63-2.87,8.17-5.63,13.48-8.27c7.96-3.97,17.67-7.67,28.65-10.92c10.99-3.24,23.24-6.02,36.26-8.09
	l1.03,6.49c-11.85,1.88-23.03,4.36-33.13,7.23c-7.57,2.15-14.53,4.53-20.69,7.03c-4.61,1.88-8.78,3.83-12.41,5.8
	c-5.45,2.95-9.68,5.99-12.4,8.79c-1.36,1.4-2.34,2.73-2.95,3.91c-0.61,1.19-0.85,2.2-0.85,3.09c0,0.25,0.02,0.5,0.06,0.74
	L35.5,137.02"/>
<path class="st1" d="M123.33,92.91c15.52-2.46,30.32-3.63,43.45-3.63c7.25,0,14,0.36,20.1,1.06c4.58,0.52,8.78,1.24,12.57,2.16
	c2.84,0.69,5.44,1.49,7.79,2.41c3.52,1.38,6.49,3.03,8.81,5.1c1.16,1.03,2.15,2.18,2.92,3.46s1.31,2.69,1.54,4.18l-6.49,1.03
	c-0.12-0.73-0.39-1.42-0.91-2.18c-0.45-0.66-1.1-1.35-1.96-2.05c-1.51-1.22-3.69-2.42-6.46-3.49c-4.15-1.61-9.59-2.9-16-3.78
	c-6.42-0.88-13.8-1.33-21.88-1.33c-12.75,0-27.22,1.14-42.43,3.55L123.33,92.91"/>
<path class="st1" d="M105.08,215.11c-0.94,0-1.85-0.15-2.72-0.46l2.15-6.21c1.93,0.67,8.32-2.4,18.61-18.86
	c9.15-14.64,18.51-35.14,26.35-57.72l6.21,2.15c-7.99,23.03-17.58,44-26.98,59.05C119.53,207.72,111.61,215.11,105.08,215.11z"/>
<path class="st1" d="M155.67,134.02l-6.21-2.15c18.75-54.02,17.88-85.98,12.16-87.97l2.15-6.2
	C180.36,43.45,168.01,98.45,155.67,134.02z"/>
<path class="st1" d="M167.36,208.79c-3.28,0-8.65-3.82-20.65-21.93c-9.56-14.43-20.87-34.29-31.85-55.93l5.86-2.97
	c23.41,46.15,42.33,72.75,46.98,74.21c-0.12-0.04-0.6-0.09-1.13,0.18l2.97,5.86C168.9,208.54,168.2,208.79,167.36,208.79z"/>
<path class="st1" d="M114.86,130.93C103.88,109.3,94.54,88.44,88.54,72.2c-9.45-25.6-6.89-29.44-3.75-31.03l2.97,5.86
	c0.53-0.27,0.78-0.69,0.82-0.81c-1.57,4.62,8.73,35.6,32.14,81.74L114.86,130.93z"/>
<path class="st4" d="M70,104.28c11.08-31.93,45.96-48.84,77.89-37.75c31.94,11.08,48.84,45.96,37.76,77.9
	c-11.09,31.93-45.96,48.84-77.9,37.75C75.82,171.09,58.91,136.22,70,104.28"/>
<path class="st5" d="M102.36,214.65c-7-2.43-9.46-13.62-7.3-33.25c1.94-17.64,7.41-40.04,15.4-63.07c1.24-3.58,2.54-7.15,3.85-10.61
	l6.14,2.33c-1.29,3.41-2.57,6.92-3.79,10.44c-7.84,22.58-13.19,44.47-15.08,61.63c-2.12,19.29,0.98,25.66,2.92,26.33L102.36,214.65z
	"/>
<path class="st5" d="M89.16,155.34c-28.55,0-51.61-5.44-53.66-18.32l6.49-1.03c0.99,6.21,14.21,10.07,26.26,11.62
	c17.34,2.23,39.86,1.4,63.4-2.34c23.54-3.74,45.21-9.92,61-17.42c10.97-5.2,22.35-12.98,21.37-19.18l6.49-1.03
	c3.04,19.11-42.99,36.99-87.83,44.11C118.06,154.07,102.96,155.34,89.16,155.34z"/>
<path class="st2" d="M111.61,153.72c-1.38,3.96-5.71,6.06-9.67,4.69c-3.97-1.38-6.06-5.71-4.69-9.67c1.38-3.97,5.71-6.06,9.67-4.69
	C110.89,145.43,112.99,149.76,111.61,153.72"/>
<path class="st3" d="M104.43,158.9c-0.83,0-1.68-0.14-2.51-0.42c-3.99-1.39-6.12-5.77-4.73-9.76c0.67-1.94,2.06-3.49,3.9-4.39
	c1.84-0.89,3.92-1.01,5.86-0.34c1.93,0.67,3.49,2.06,4.39,3.9s1.02,3.92,0.34,5.86l0,0C110.58,156.91,107.6,158.9,104.43,158.9z
	 M104.43,143.7c-1.12,0-2.24,0.25-3.28,0.76c-1.81,0.88-3.17,2.41-3.83,4.31c-1.36,3.92,0.72,8.22,4.64,9.58
	c3.92,1.37,8.22-0.72,9.58-4.65l0,0c0.66-1.9,0.54-3.94-0.34-5.75s-2.41-3.17-4.31-3.83C106.09,143.83,105.26,143.7,104.43,143.7z"
	/>
<path class="st5" d="M84.79,41.16c0.69-0.35,1.45-0.5,2.12-0.5c0.56,0,1.07,0.09,1.53,0.22c0.89,0.26,1.63,0.66,2.36,1.14
	c1.36,0.9,2.67,2.11,4.13,3.65c2.54,2.7,5.45,6.41,8.73,11.05c4.91,6.95,10.6,15.95,16.69,26.44c6.1,10.48,12.61,22.45,19.12,35.28
	c9.75,19.23,17.94,37.28,23.71,51.89c2.88,7.31,5.16,13.75,6.74,19.09c0.79,2.67,1.4,5.07,1.83,7.18c0.42,2.12,0.66,3.94,0.66,5.57
	c0,1.07-0.09,2.06-0.44,3.1c-0.18,0.52-0.43,1.06-0.83,1.58c-0.39,0.52-0.94,1.02-1.6,1.35l-2.97-5.86l0.86,1.69l-1.52-1.15
	c0.12-0.17,0.36-0.39,0.66-0.54l0.86,1.69l-1.52-1.15l0.92,0.7l-1.07-0.45c0.01-0.03,0.05-0.12,0.15-0.25l0.92,0.7l-1.07-0.45
	l0.23,0.1l-0.24-0.08l0.01-0.02l0.23,0.1l-0.24-0.08c0.01-0.01,0.1-0.38,0.09-0.99c0-0.94-0.16-2.43-0.54-4.28
	c-0.65-3.24-1.9-7.62-3.67-12.81c-2.66-7.8-6.49-17.47-11.24-28.31s-10.43-22.85-16.78-35.36c-10.83-21.36-21.66-40.27-30.48-53.76
	c-4.41-6.74-8.32-12.13-11.41-15.72c-1.54-1.79-2.88-3.14-3.86-3.92c-0.48-0.39-0.88-0.64-1.09-0.75c-0.05-0.02-0.09-0.04-0.12-0.05
	l-0.03-0.01l0.15-0.48l-0.08,0.49c-0.05-0.01-0.07-0.02-0.07-0.02l0.15-0.48l-0.08,0.49l0.22-1.26v1.28c-0.1,0-0.17-0.01-0.22-0.02
	l0.22-1.26v1.28v-1.9l0.85,1.68c-0.31,0.16-0.65,0.22-0.85,0.21v-1.9l0.85,1.68L84.79,41.16"/>
<path class="st2" d="M155.24,146.64c-1.38,3.97-5.71,6.06-9.67,4.69c-3.96-1.38-6.06-5.71-4.69-9.67c1.38-3.97,5.71-6.06,9.67-4.69
	C154.52,138.35,156.62,142.68,155.24,146.64"/>
<path class="st3" d="M148.07,151.82c-0.85,0-1.7-0.14-2.52-0.43c-1.93-0.67-3.49-2.06-4.39-3.9c-0.89-1.84-1.02-3.92-0.34-5.86
	c0.67-1.94,2.06-3.49,3.9-4.39s3.93-1.01,5.86-0.34c1.93,0.67,3.49,2.06,4.39,3.9s1.02,3.92,0.34,5.86l0,0
	c-0.67,1.94-2.06,3.49-3.9,4.39C150.35,151.56,149.21,151.82,148.07,151.82z M148.06,136.62c-1.12,0-2.24,0.25-3.28,0.76
	c-1.81,0.88-3.17,2.41-3.83,4.31s-0.54,3.94,0.34,5.75s2.41,3.17,4.31,3.83s3.94,0.54,5.75-0.34c1.81-0.88,3.17-2.41,3.83-4.31l0,0
	c0.66-1.9,0.54-3.94-0.34-5.75c-0.88-1.81-2.41-3.17-4.31-3.83C149.72,136.76,148.89,136.62,148.06,136.62z"/>
<path class="st5" d="M56.83,68.72c0.53-0.7,1.17-1.31,1.88-1.81c1.06-0.74,2.26-1.24,3.51-1.54c1.26-0.31,2.58-0.44,3.98-0.44
	c2.07,0,4.31,0.29,6.74,0.8c4.26,0.9,9.11,2.51,14.5,4.75c8.08,3.36,17.34,8.14,27.3,14.1c9.95,5.96,20.59,13.11,31.37,21.19
	c18.02,13.51,33.39,27.37,44.36,39.49c5.48,6.07,9.87,11.69,12.95,16.72c1.54,2.51,2.76,4.88,3.62,7.12
	c0.85,2.24,1.37,4.36,1.37,6.45c0,0.98-0.12,1.95-0.4,2.9c-0.28,0.94-0.72,1.86-1.32,2.66l-5.25-3.94c0.11-0.15,0.2-0.32,0.28-0.57
	c0.07-0.26,0.13-0.6,0.13-1.04c0-0.95-0.27-2.37-0.94-4.1c-0.58-1.52-1.44-3.27-2.58-5.2c-1.99-3.37-4.8-7.27-8.32-11.51
	c-5.28-6.35-12.15-13.48-20.24-20.9c-8.09-7.43-17.41-15.18-27.59-22.81c-16.16-12.12-31.99-22.08-45.43-28.96
	c-6.72-3.44-12.84-6.11-18.06-7.9c-2.61-0.89-5-1.56-7.1-2.01c-2.1-0.44-3.92-0.66-5.38-0.66c-1.32,0-2.32,0.18-2.97,0.42
	c-0.33,0.12-0.57,0.25-0.74,0.37c-0.18,0.12-0.3,0.24-0.4,0.38L56.83,68.72"/>
<path class="st5" d="M118.65,96.78c3.55-8.54,7.21-16.45,10.88-23.52c2.75-5.3,5.49-10.14,8.19-14.42
	c4.05-6.43,7.97-11.61,11.73-15.33c1.89-1.86,3.73-3.36,5.62-4.46c0.94-0.55,1.9-0.99,2.9-1.31c0.99-0.31,2.02-0.5,3.07-0.5
	c0.92,0,1.85,0.15,2.73,0.46l-2.15,6.2c-0.17-0.06-0.34-0.09-0.58-0.09s-0.55,0.04-0.93,0.15c-0.72,0.2-1.7,0.67-2.82,1.47
	c-1.98,1.39-4.38,3.74-6.95,6.91c-3.87,4.76-8.16,11.36-12.52,19.32c-4.36,7.97-8.82,17.32-13.1,27.64L118.65,96.78"/>
<path class="st6" d="M131.71,103.57c0.02-0.02,0.05-0.05,0.07-0.07c-0.06-0.04-0.12-0.08-0.17-0.12
	C131.64,103.44,131.68,103.5,131.71,103.57 M111.31,90.48c-0.31,0.9-0.51,1.81-0.62,2.71c-0.63,5.66,2.7,11.2,8.3,13.15
	c1.14,0.4,2.3,0.62,3.45,0.68c1.19,0.06,2.36-0.05,3.5-0.32c-1.63-3.04-3.25-6.02-4.84-8.9l-2.45-1.02
	c0.23-0.54,0.45-1.09,0.68-1.63c-2.69-1.72-5.34-3.36-7.94-4.92C111.37,90.32,111.34,90.4,111.31,90.48 M127.55,92.67
	c2.5,1.65,5.02,3.37,7.56,5.14c1.12-4.16,0-8.46-2.71-11.51l0,0c-0.01-0.01-0.02-0.03-0.03-0.04c0,0,0,0-0.01-0.01
	s-0.02-0.02-0.03-0.04l-0.01-0.01c-0.01-0.01-0.01-0.02-0.02-0.02l-0.01-0.01c-0.01-0.01-0.02-0.02-0.02-0.03
	c-0.01-0.01-0.02-0.02-0.03-0.03l-0.01-0.01c-0.37-0.4-0.76-0.77-1.18-1.12C129.88,87.47,128.71,90.03,127.55,92.67 M123.03,82.1
	C123.02,82.1,123.02,82.1,123.03,82.1c-0.02,0-0.04,0-0.06,0l0,0c-1.02,0.01-2.03,0.15-3,0.4c0.13,0.22,0.26,0.44,0.39,0.66
	c0.79,1.36,1.59,2.75,2.4,4.16c0.77-1.72,1.55-3.41,2.33-5.06c-0.15-0.03-0.3-0.05-0.46-0.07h-0.01c-0.02,0-0.03,0-0.05,0
	c-0.01,0-0.02,0-0.02,0c-0.01,0-0.02,0-0.03,0s-0.02,0-0.04,0c-0.01,0-0.02,0-0.02,0c-0.02,0-0.03,0-0.04,0c0,0-0.01,0-0.02,0
	c-0.02,0-0.04,0-0.05-0.01c0,0,0,0-0.01,0c-0.42-0.04-0.83-0.06-1.24-0.06C123.06,82.1,123.05,82.1,123.03,82.1"/>
<path class="st2" d="M130.26,97.06c-1.38,3.96-5.71,6.06-9.67,4.69c-3.97-1.38-6.06-5.71-4.69-9.67c1.38-3.96,5.71-6.06,9.67-4.69
	C129.54,88.77,131.64,93.1,130.26,97.06"/>
<polygon class="st5" points="119.4,103.21 125.97,117.41 105.01,109.71 "/>
<path class="st7" d="M126.5,253C56.75,253,0,196.25,0,126.5S56.75,0,126.5,0S253,56.75,253,126.5S196.25,253,126.5,253z M126.5,16
	C65.57,16,16,65.57,16,126.5S65.57,237,126.5,237S237,187.43,237,126.5S187.43,16,126.5,16z"/>
</svg>
