<?xml version="1.0" encoding="utf-8"?>
<!-- Generator: Adobe Illustrator 23.0.1, SVG Export Plug-In . SVG Version: 6.00 Build 0)  -->
<svg version="1.1" id="Layer_1" xmlns="http://www.w3.org/2000/svg" xmlns:xlink="http://www.w3.org/1999/xlink" x="0px" y="0px"
	 viewBox="0 0 253 253" style="enable-background:new 0 0 253 253;" xml:space="preserve">
<style type="text/css">
	.st0{fill:#A3A3A3;}
	.st1{fill:none;}
	.st2{fill:#FFFFFF;}
	.st3{fill:#B2A300;}
	.st4{fill:#D45516;}
	.st5{fill:#D21418;}
</style>
<g>
	<circle class="st0" cx="123.5" cy="126.5" r="117"/>
	<path class="st1" d="M17.26,127.38c0,63.58,51.54,115.12,115.12,115.12c63.58,0,115.12-51.54,115.12-115.12
		c0-63.58-51.54-115.12-115.12-115.12C68.8,12.26,17.26,63.8,17.26,127.38"/>
	<rect x="47" y="50" class="st2" width="91" height="131"/>
	<path d="M40.98,173.21V54.92c0-6.54,5.32-11.85,11.85-11.85h76.74c6.53,0,11.85,5.32,11.85,11.85v118.29
		c0,6.54-5.32,11.85-11.85,11.85H52.83C46.3,185.07,40.98,179.75,40.98,173.21 M134.45,54.92c0-2.69-2.19-4.88-4.88-4.88H52.83
		c-2.69,0-4.88,2.19-4.88,4.88v118.29c0,2.69,2.19,4.88,4.88,4.88h76.74c2.69,0,4.88-2.19,4.88-4.88V54.92z"/>
	<rect x="75.5" y="66.5" class="st2" width="91" height="131"/>
	<path d="M69.98,192.21V73.92c0-6.54,5.32-11.85,11.85-11.85h76.74c6.53,0,11.85,5.32,11.85,11.85v118.29
		c0,6.54-5.32,11.85-11.85,11.85H81.83C75.3,204.07,69.98,198.75,69.98,192.21 M163.45,73.92c0-2.69-2.19-4.88-4.88-4.88H81.83
		c-2.69,0-4.88,2.19-4.88,4.88v118.29c0,2.69,2.19,4.88,4.88,4.88h76.74c2.69,0,4.88-2.19,4.88-4.88V73.92z"/>
	<rect x="101.5" y="86.5" class="st2" width="91" height="131"/>
	<path d="M96.98,210.21V91.92c0-6.54,5.32-11.85,11.85-11.85h76.74c6.53,0,11.85,5.32,11.85,11.85v118.29
		c0,6.54-5.32,11.85-11.85,11.85h-76.74C102.3,222.07,96.98,216.75,96.98,210.21 M190.45,91.92c0-2.69-2.19-4.88-4.88-4.88h-76.74
		c-2.69,0-4.88,2.19-4.88,4.88v118.29c0,2.69,2.19,4.88,4.88,4.88h76.74c2.69,0,4.88-2.19,4.88-4.88V91.92z"/>
	<path class="st2" d="M126.5,253C56.75,253,0,196.25,0,126.5S56.75,0,126.5,0S253,56.75,253,126.5S196.25,253,126.5,253z M126.5,16
		C65.57,16,16,65.57,16,126.5S65.57,237,126.5,237S237,187.43,237,126.5S187.43,16,126.5,16z"/>
	<path d="M182,105.5h-70c-1.38,0-2.5-1.12-2.5-2.5s1.12-2.5,2.5-2.5h70c1.38,0,2.5,1.12,2.5,2.5S183.38,105.5,182,105.5z"/>
	<path d="M182,121.5h-70c-1.38,0-2.5-1.12-2.5-2.5s1.12-2.5,2.5-2.5h70c1.38,0,2.5,1.12,2.5,2.5S183.38,121.5,182,121.5z"/>
	<path d="M93,85.5h-9c-1.38,0-2.5-1.12-2.5-2.5s1.12-2.5,2.5-2.5h9c1.38,0,2.5,1.12,2.5,2.5S94.38,85.5,93,85.5z"/>
	<path d="M90,101.5h-6c-1.38,0-2.5-1.12-2.5-2.5s1.12-2.5,2.5-2.5h6c1.38,0,2.5,1.12,2.5,2.5S91.38,101.5,90,101.5z"/>
	<path d="M90,118.5h-6c-1.38,0-2.5-1.12-2.5-2.5s1.12-2.5,2.5-2.5h6c1.38,0,2.5,1.12,2.5,2.5S91.38,118.5,90,118.5z"/>
	<path d="M90,135.5h-6c-1.38,0-2.5-1.12-2.5-2.5s1.12-2.5,2.5-2.5h6c1.38,0,2.5,1.12,2.5,2.5S91.38,135.5,90,135.5z"/>
	<path d="M90,152.5h-6c-1.38,0-2.5-1.12-2.5-2.5s1.12-2.5,2.5-2.5h6c1.38,0,2.5,1.12,2.5,2.5S91.38,152.5,90,152.5z"/>
	<path d="M90,169.5h-6c-1.38,0-2.5-1.12-2.5-2.5s1.12-2.5,2.5-2.5h6c1.38,0,2.5,1.12,2.5,2.5S91.38,169.5,90,169.5z"/>
	<path d="M90,186.5h-6c-1.38,0-2.5-1.12-2.5-2.5s1.12-2.5,2.5-2.5h6c1.38,0,2.5,1.12,2.5,2.5S91.38,186.5,90,186.5z"/>
	<path d="M66,64.5h-9c-1.38,0-2.5-1.12-2.5-2.5s1.12-2.5,2.5-2.5h9c1.38,0,2.5,1.12,2.5,2.5S67.38,64.5,66,64.5z"/>
	<path d="M63,80.5h-6c-1.38,0-2.5-1.12-2.5-2.5s1.12-2.5,2.5-2.5h6c1.38,0,2.5,1.12,2.5,2.5S64.38,80.5,63,80.5z"/>
	<path d="M63,97.5h-6c-1.38,0-2.5-1.12-2.5-2.5s1.12-2.5,2.5-2.5h6c1.38,0,2.5,1.12,2.5,2.5S64.38,97.5,63,97.5z"/>
	<path d="M63,114.5h-6c-1.38,0-2.5-1.12-2.5-2.5s1.12-2.5,2.5-2.5h6c1.38,0,2.5,1.12,2.5,2.5S64.38,114.5,63,114.5z"/>
	<path d="M63,131.5h-6c-1.38,0-2.5-1.12-2.5-2.5s1.12-2.5,2.5-2.5h6c1.38,0,2.5,1.12,2.5,2.5S64.38,131.5,63,131.5z"/>
	<path d="M63,148.5h-6c-1.38,0-2.5-1.12-2.5-2.5s1.12-2.5,2.5-2.5h6c1.38,0,2.5,1.12,2.5,2.5S64.38,148.5,63,148.5z"/>
	<path d="M63,165.5h-6c-1.38,0-2.5-1.12-2.5-2.5s1.12-2.5,2.5-2.5h6c1.38,0,2.5,1.12,2.5,2.5S64.38,165.5,63,165.5z"/>
	<path d="M182,137.5h-70c-1.38,0-2.5-1.12-2.5-2.5s1.12-2.5,2.5-2.5h70c1.38,0,2.5,1.12,2.5,2.5S183.38,137.5,182,137.5z"/>
	<path d="M182,153.5h-70c-1.38,0-2.5-1.12-2.5-2.5s1.12-2.5,2.5-2.5h70c1.38,0,2.5,1.12,2.5,2.5S183.38,153.5,182,153.5z"/>
	<path d="M182.25,207.29h-70c-1.26,0-2.29-1.02-2.29-2.29v-36c0-1.26,1.02-2.29,2.29-2.29h70c1.26,0,2.29,1.02,2.29,2.29v36
		C184.54,206.26,183.51,207.29,182.25,207.29z M114.54,202.71h65.42v-31.43h-65.42V202.71z"/>
	<rect x="114.25" y="170.5" class="st3" width="11" height="11"/>
	<rect x="125.25" y="170.5" class="st4" width="11" height="11"/>
	<rect x="136.25" y="170.5" class="st4" width="11" height="11"/>
	<rect x="147.25" y="170.5" class="st5" width="11" height="11"/>
	<rect x="158.25" y="170.5" width="11" height="11"/>
	<rect x="169.25" y="170.5" class="st2" width="11" height="11"/>
	<rect x="114.25" y="181.5" class="st2" width="11" height="11"/>
	<rect x="125.25" y="181.5" class="st3" width="11" height="11"/>
	<rect x="136.25" y="181.5" class="st5" width="11" height="11"/>
	<rect x="147.25" y="181.5" class="st5" width="11" height="11"/>
	<rect x="158.25" y="181.5" width="11" height="11"/>
	<rect x="169.25" y="181.5" width="11" height="11"/>
	<rect x="114.25" y="192.5" class="st5" width="11" height="11"/>
	<rect x="125.25" y="192.5" class="st2" width="11" height="11"/>
	<rect x="136.25" y="192.5" class="st3" width="11" height="11"/>
	<rect x="147.25" y="192.5" class="st3" width="11" height="11"/>
	<rect x="158.25" y="192.5" class="st4" width="11" height="11"/>
	<rect x="169.25" y="192.5" class="st5" width="11" height="11"/>
</g>
</svg>
