<?xml version="1.0" encoding="utf-8"?>
<!-- Generator: Adobe Illustrator 23.0.1, SVG Export Plug-In . SVG Version: 6.00 Build 0)  -->
<svg version="1.1" id="Layer_1" xmlns="http://www.w3.org/2000/svg" xmlns:xlink="http://www.w3.org/1999/xlink" x="0px" y="0px"
	 viewBox="0 0 253 253" style="enable-background:new 0 0 253 253;" xml:space="preserve">
<style type="text/css">
	.st0{fill:#A3A3A3;}
	.st1{fill:#FFFFFF;}
	.st2{fill:#1D1D1B;}
	.st3{fill:#F5F5F5;}
	.st4{fill:#B7B7B7;}
	.st5{fill:url(#SVGID_1_);}
	.st6{fill:url(#SVGID_2_);}
	.st7{fill:#C7C7C7;}
</style>
<g>
	<circle class="st0" cx="127.25" cy="126.5" r="117"/>
	<path class="st1" d="M126.5,253C56.75,253,0,196.25,0,126.5C0,56.75,56.75,0,126.5,0C196.25,0,253,56.75,253,126.5
		C253,196.25,196.25,253,126.5,253z M126.5,16C65.57,16,16,65.57,16,126.5S65.57,237,126.5,237S237,187.43,237,126.5
		S187.43,16,126.5,16z"/>
	<g>
		<path class="st2" d="M126.8,133.09c-11.45,0-20.76-9.31-20.76-20.76c0-11.45,9.31-20.76,20.76-20.76
			c11.45,0,20.77,9.31,20.77,20.76C147.56,123.78,138.25,133.09,126.8,133.09z M126.8,92.86c-10.73,0-19.47,8.73-19.47,19.47
			c0,10.73,8.73,19.47,19.47,19.47c10.74,0,19.47-8.73,19.47-19.47C146.27,101.6,137.53,92.86,126.8,92.86z"/>
		<polyline class="st3" points="146.92,112.33 159.03,118.26 201.06,104.94 		"/>
		<polyline class="st3" points="52.54,104.94 94.57,118.26 106.68,112.33 		"/>
		<polyline class="st3" points="140.54,127.02 149.45,141.18 198.68,141.18 		"/>
		<polyline class="st3" points="54.47,141.18 104.33,141.18 113.06,127.02 		"/>
		<path class="st2" d="M126.8,151.13c-18.13,0-32.88-14.75-32.88-32.88s14.75-32.88,32.88-32.88c18.13,0,32.88,14.75,32.88,32.88
			S144.93,151.13,126.8,151.13z M126.8,86.68c-17.41,0-31.58,14.17-31.58,31.58c0,17.41,14.17,31.58,31.58,31.58
			c17.41,0,31.58-14.17,31.58-31.58C158.38,100.84,144.21,86.68,126.8,86.68z"/>
		<polygon class="st3" points="153.67,189.31 99.27,189.31 109.39,149.3 143.89,149.3 		"/>
		<g>
			<path class="st4" d="M196.65,160.44v43.69H56.5v-43.69l4.27-5.62c-4.24-9.52-5.81-20.06-5.81-31.15
				c0-42.29,25.53,23.74,67.82,23.74s71.53-66.03,71.53-23.74c0,11.09,2.05,21.63-2.2,31.15L196.65,160.44z"/>
			<path class="st2" d="M196.65,206.45H56.5c-1.28,0-2.32-1.04-2.32-2.32v-43.69c0-0.51,0.17-1,0.47-1.41l3.45-4.54
				c-3.67-8.77-5.46-18.88-5.46-30.82c0-9.99,1.37-14.64,4.73-16.07c4.46-1.89,9.69,3.13,17.6,10.74
				c11.74,11.29,27.81,26.75,47.82,26.75c19.66,0,36.61-15.12,48.99-26.16c9.06-8.08,15.04-13.42,19.92-11.24
				c3.47,1.55,4.95,6.33,4.95,15.99c0,2.71,0.13,5.44,0.25,8.07c0.37,7.93,0.72,15.45-2.09,22.69l3.66,4.55
				c0.33,0.41,0.51,0.93,0.51,1.46v43.69C198.97,205.41,197.93,206.45,196.65,206.45z M58.82,201.81h135.5v-40.55l-4.01-4.99
				c-0.55-0.68-0.67-1.61-0.31-2.4c2.96-6.64,2.62-14.06,2.25-21.91c-0.13-2.69-0.25-5.47-0.25-8.29c0-10.24-1.83-11.58-2.2-11.75
				c-2.13-0.96-9.23,5.38-14.93,10.46c-12.94,11.54-30.65,27.34-52.08,27.34c-21.87,0-39.42-16.88-51.04-28.05
				c-4.35-4.18-10.92-10.49-12.56-9.81c-0.08,0.03-1.9,0.93-1.9,11.8c0,11.86,1.83,21.74,5.61,30.2c0.35,0.77,0.24,1.68-0.27,2.35
				l-3.8,5V201.81z"/>
		</g>
		<g>
			<radialGradient id="SVGID_1_" cx="126.5" cy="118.6034" r="75.25" gradientUnits="userSpaceOnUse">
				<stop  offset="0" style="stop-color:#FFFFFF"/>
				<stop  offset="0.3212" style="stop-color:#D6D6D6"/>
				<stop  offset="0.6308" style="stop-color:#B3B3B3"/>
				<stop  offset="1" style="stop-color:#FFFFFF"/>
			</radialGradient>
			<path class="st5" d="M126.5,43.35c-41.56,0-75.25,33.69-75.25,75.25c0,41.56,33.69,75.25,75.25,75.25s75.25-33.69,75.25-75.25
				C201.75,77.04,168.06,43.35,126.5,43.35z M126.5,131.61c-7.18,0-13.01-5.82-13.01-13.01s5.82-13.01,13.01-13.01
				s13.01,5.82,13.01,13.01S133.68,131.61,126.5,131.61z"/>
			<path d="M126.5,196.18c-42.77,0-77.57-34.8-77.57-77.57s34.8-77.57,77.57-77.57s77.57,34.8,77.57,77.57
				S169.27,196.18,126.5,196.18z M126.5,45.68c-40.21,0-72.93,32.72-72.93,72.93s32.71,72.93,72.93,72.93
				c40.21,0,72.93-32.72,72.93-72.93S166.71,45.68,126.5,45.68z M126.5,133.93c-8.45,0-15.33-6.88-15.33-15.33
				s6.88-15.33,15.33-15.33s15.33,6.88,15.33,15.33S134.95,133.93,126.5,133.93z M126.5,107.92c-5.89,0-10.68,4.79-10.68,10.68
				s4.79,10.68,10.68,10.68s10.68-4.79,10.68-10.68S132.39,107.92,126.5,107.92z"/>
		</g>
		<path class="st2" d="M159.03,120.58c-0.35,0-0.7-0.08-1.02-0.24l-12.11-5.93c-1.15-0.56-1.63-1.96-1.07-3.11
			c0.56-1.15,1.96-1.63,3.11-1.07l11.28,5.52l41.15-13.04c1.22-0.39,2.53,0.29,2.92,1.51c0.39,1.22-0.29,2.53-1.51,2.92
			l-42.03,13.32C159.5,120.54,159.26,120.58,159.03,120.58z"/>
		<path class="st2" d="M94.57,120.58c-0.24,0-0.47-0.04-0.7-0.11l-42.03-13.32c-1.22-0.39-1.9-1.69-1.51-2.92
			c0.39-1.22,1.69-1.9,2.92-1.51l41.15,13.04l11.28-5.52c1.15-0.56,2.54-0.09,3.11,1.07c0.56,1.15,0.09,2.54-1.07,3.11l-12.11,5.93
			C95.27,120.5,94.92,120.58,94.57,120.58z"/>
		<path class="st2" d="M198.68,143.51h-49.23c-0.8,0-1.54-0.41-1.97-1.09l-8.9-14.17c-0.68-1.09-0.36-2.52,0.73-3.2
			c1.08-0.68,2.52-0.35,3.2,0.73l8.22,13.08h47.95c1.28,0,2.32,1.04,2.32,2.32S199.96,143.51,198.68,143.51z"/>
		<path class="st2" d="M104.33,143.51H54.47c-1.28,0-2.32-1.04-2.32-2.32s1.04-2.32,2.32-2.32h48.56l8.05-13.06
			c0.67-1.09,2.1-1.43,3.2-0.76c1.09,0.67,1.43,2.1,0.76,3.2l-8.73,14.17C105.89,143.09,105.14,143.51,104.33,143.51z"/>
		<g>
			<radialGradient id="SVGID_2_" cx="126.5" cy="118.6034" r="31.5864" gradientUnits="userSpaceOnUse">
				<stop  offset="0" style="stop-color:#666666"/>
				<stop  offset="1" style="stop-color:#FFFFFF"/>
			</radialGradient>
			<path class="st6" d="M126.5,87.02c-17.44,0-31.59,14.14-31.59,31.59c0,17.44,14.14,31.59,31.59,31.59s31.59-14.14,31.59-31.59
				C158.09,101.16,143.94,87.02,126.5,87.02z M126.5,131.61c-7.18,0-13.01-5.82-13.01-13.01s5.82-13.01,13.01-13.01
				s13.01,5.82,13.01,13.01S133.68,131.61,126.5,131.61z"/>
			<path d="M126.5,152.51c-18.7,0-33.91-15.21-33.91-33.91s15.21-33.91,33.91-33.91s33.91,15.21,33.91,33.91
				S145.2,152.51,126.5,152.51z M126.5,89.34c-16.14,0-29.26,13.13-29.26,29.26c0,16.14,13.13,29.26,29.26,29.26
				c16.14,0,29.26-13.13,29.26-29.26C155.76,102.47,142.64,89.34,126.5,89.34z M126.5,133.93c-8.45,0-15.33-6.88-15.33-15.33
				s6.88-15.33,15.33-15.33s15.33,6.88,15.33,15.33S134.95,133.93,126.5,133.93z M126.5,107.92c-5.89,0-10.68,4.79-10.68,10.68
				s4.79,10.68,10.68,10.68s10.68-4.79,10.68-10.68S132.39,107.92,126.5,107.92z"/>
		</g>
		<g>
			<rect x="99.56" y="176.2" class="st7" width="53.88" height="33.44"/>
			<path class="st2" d="M153.44,211.97H99.56c-1.28,0-2.32-1.04-2.32-2.32V176.2c0-1.28,1.04-2.32,2.32-2.32h53.88
				c1.28,0,2.32,1.04,2.32,2.32v33.44C155.76,210.93,154.72,211.97,153.44,211.97z M101.88,207.32h49.24v-28.8h-49.24V207.32z"/>
		</g>
		<g>
			<polygon class="st1" points="153.67,176.2 99.27,176.2 109.39,137.18 143.89,137.18 			"/>
			<path class="st2" d="M153.67,178.52h-54.4c-0.72,0-1.4-0.33-1.84-0.9c-0.44-0.57-0.59-1.31-0.41-2l10.11-39.02
				c0.27-1.02,1.19-1.74,2.25-1.74h34.5c1.07,0,1.99,0.72,2.25,1.76l9.79,39.02c0.17,0.69,0.02,1.43-0.42,1.99
				S154.39,178.52,153.67,178.52z M102.28,173.88h48.42l-8.62-34.37h-30.89L102.28,173.88z"/>
		</g>
	</g>
</g>
</svg>
