<?xml version="1.0" encoding="utf-8"?>
<!-- Generator: Adobe Illustrator 23.0.1, SVG Export Plug-In . SVG Version: 6.00 Build 0)  -->
<svg version="1.1" id="Layer_1" xmlns="http://www.w3.org/2000/svg" xmlns:xlink="http://www.w3.org/1999/xlink" x="0px" y="0px"
	 viewBox="0 0 253 253" style="enable-background:new 0 0 253 253;" xml:space="preserve">
<style type="text/css">
	.st0{fill:none;}
	.st1{fill:#A3A3A3;}
	.st2{fill:#FFFFFF;}
	.st3{fill:url(#SVGID_1_);}
</style>
<g>
	<rect x="4.63" y="8.42" class="st0" width="241.31" height="238.93"/>
	<path class="st0" d="M9.26,126.38c0,63.58,51.54,115.12,115.12,115.12c63.58,0,115.12-51.54,115.12-115.12
		c0-63.58-51.54-115.12-115.12-115.12C60.8,11.26,9.26,62.8,9.26,126.38"/>
	<circle class="st1" cx="125.5" cy="128.5" r="117"/>
	<rect x="44.5" y="76.5" class="st2" width="160" height="92"/>
	<radialGradient id="SVGID_1_" cx="72.6565" cy="94.126" r="138.4309" gradientUnits="userSpaceOnUse">
		<stop  offset="0" style="stop-color:#FFFFFF;stop-opacity:0"/>
		<stop  offset="0.9984" style="stop-color:#00DDFF;stop-opacity:0.4"/>
	</radialGradient>
	<rect x="42.5" y="76.5" class="st3" width="162" height="89"/>
	<g>
		<path d="M196.65,171.59H52.35c-6.54,0-11.85-5.32-11.85-11.85V82.99c0-6.53,5.32-11.85,11.85-11.85h144.29
			c6.54,0,11.85,5.32,11.85,11.85v76.74C208.5,166.27,203.18,171.59,196.65,171.59 M52.35,78.12c-2.69,0-4.88,2.19-4.88,4.88v76.74
			c0,2.69,2.19,4.88,4.88,4.88h144.29c2.69,0,4.88-2.19,4.88-4.88V82.99c0-2.69-2.19-4.88-4.88-4.88H52.35z"/>
		<path d="M165.76,197.99H83.24c-1.93,0-3.49-1.56-3.49-3.49c0-1.92,1.56-3.49,3.49-3.49h82.52c1.93,0,3.49,1.56,3.49,3.49
			C169.25,196.43,167.69,197.99,165.76,197.99"/>
		<rect x="117.09" y="170.86" width="14.82" height="20.84"/>
	</g>
	<path class="st2" d="M126.5,253C56.75,253,0,196.25,0,126.5C0,56.75,56.75,0,126.5,0S253,56.75,253,126.5
		C253,196.25,196.25,253,126.5,253z M126.5,16C65.57,16,16,65.57,16,126.5S65.57,237,126.5,237S237,187.43,237,126.5
		S187.43,16,126.5,16z"/>
	<path d="M129,98.5H59c-1.38,0-2.5-1.12-2.5-2.5s1.12-2.5,2.5-2.5h70c1.38,0,2.5,1.12,2.5,2.5S130.38,98.5,129,98.5z"/>
	<path d="M129,114.5H59c-1.38,0-2.5-1.12-2.5-2.5s1.12-2.5,2.5-2.5h70c1.38,0,2.5,1.12,2.5,2.5S130.38,114.5,129,114.5z"/>
	<path d="M129,130.5H59c-1.38,0-2.5-1.12-2.5-2.5s1.12-2.5,2.5-2.5h70c1.38,0,2.5,1.12,2.5,2.5S130.38,130.5,129,130.5z"/>
	<path d="M129,146.5H59c-1.38,0-2.5-1.12-2.5-2.5s1.12-2.5,2.5-2.5h70c1.38,0,2.5,1.12,2.5,2.5S130.38,146.5,129,146.5z"/>
	<circle cx="153" cy="144" r="2.5"/>
	<circle cx="185" cy="144" r="2.5"/>
	<circle cx="169" cy="144" r="2.5"/>
	<g>
		<path d="M144.41,100.47l11.99-6.17v1.78l-10.1,5.06v0.05l10.1,5.06v1.78l-11.99-6.17V100.47z"/>
		<path d="M163.55,109.05l7.18-18.73h1.78l-7.23,18.73H163.55z"/>
		<path d="M191.6,101.89l-11.99,6.15v-1.78l10.18-5.06v-0.05l-10.18-5.06V94.3l11.99,6.12V101.89z"/>
	</g>
</g>
</svg>
