<?xml version="1.0" encoding="utf-8"?>
<!-- Generator: Adobe Illustrator 23.0.1, SVG Export Plug-In . SVG Version: 6.00 Build 0)  -->
<svg version="1.1" id="Layer_1" xmlns="http://www.w3.org/2000/svg" xmlns:xlink="http://www.w3.org/1999/xlink" x="0px" y="0px"
	 viewBox="0 0 253 253" style="enable-background:new 0 0 253 253;" xml:space="preserve">
<style type="text/css">
	.st0{fill:#A3A3A3;}
	.st1{fill:#D45516;}
	.st2{fill:#625C00;}
	.st3{fill:#D11418;}
	.st4{fill:#B2A300;}
	.st5{fill:#FFFFFF;}
	.st6{fill:#1D1D1B;}
	.st7{opacity:0.25;enable-background:new    ;}
</style>
<g>
	<circle class="st0" cx="126" cy="123" r="117"/>
	<polygon points="62.96,157.42 62.96,182.31 80.75,185.07 80.75,159.17 	"/>
	<polygon points="156.09,151.51 132.18,149.83 132.18,121.58 120.98,121.42 120.98,107.34 90.2,107.76 90.2,94.55 110.26,93.71 
		110.26,79.93 120.98,79.18 120.98,65.1 132.18,64 132.18,92.79 143.9,92.3 143.9,107.03 156.17,106.86 156.09,121.93 143.9,121.75 
		143.9,135.93 156.09,136.44 	"/>
	<polygon class="st1" points="62.96,108.13 62.96,133.01 80.77,134 80.75,146.23 100,147.58 100,174.55 110.26,175.85 
		110.26,135.04 100,134.6 100,121.11 90.2,120.97 90.2,107.76 80.77,108 80.77,82 71.68,82.64 71.68,108.01 	"/>
	<rect x="77.88" y="159.17" class="st2" width="12.94" height="12.94"/>
	<polygon class="st3" points="80.75,107.89 71.68,108.01 71.68,120.7 80.75,120.83 	"/>
	<polygon class="st3" points="100.05,80.65 90.2,81.34 90.2,81.34 80.75,82 80.75,94.94 80.75,107.89 90.2,107.76 90.2,94.55 
		100,94.14 100.05,94.13 110.26,93.71 110.26,79.93 	"/>
	<polygon class="st3" points="62.96,95.69 62.96,108.13 71.68,108.01 71.68,95.32 71.68,82.64 62.96,83.25 	"/>
	<polygon class="st3" points="71.68,69.95 62.96,70.8 62.96,83.25 71.68,82.64 80.75,82 80.75,69.06 	"/>
	<polygon class="st4" points="62.96,133.01 62.96,157.42 80.75,159.17 80.75,185.07 90.2,186.53 90.2,173.22 100,174.55 100,147.58 
		80.75,146.23 80.75,133.77 	"/>
	<polygon class="st4" points="68.8,158.28 68.8,170.97 77.88,172.12 77.88,159.17 	"/>
	<path class="st5" d="M126.5,253C56.75,253,0,196.25,0,126.5S56.75,0,126.5,0S253,56.75,253,126.5S196.25,253,126.5,253z M126.5,16
		C65.57,16,16,65.57,16,126.5S65.57,237,126.5,237c60.93,0,110.5-49.57,110.5-110.5S187.43,16,126.5,16z"/>
	<polygon class="st5" points="100,174.55 90.2,173.31 90.2,186.53 100.05,188.05 100,188.04 	"/>
	<polygon class="st4" points="110.26,175.85 100,174.55 100,188.04 100.05,188.05 110.26,189.63 	"/>
	<polygon class="st1" points="110.26,175.85 110.26,189.63 132.18,193.02 132.18,178.63 143.9,180.11 143.9,165.38 120.98,163.13 
		120.98,177.21 	"/>
	<polygon class="st3" points="132.18,193.02 132.18,178.63 143.9,180.11 143.9,165.38 120.98,163.13 120.98,177.21 110.26,175.85 
		110.26,135.04 100,134.6 100,121.11 90.2,120.97 90.2,107.76 120.98,107.34 120.98,121.42 132.18,121.58 132.18,135.98 
		120.98,135.5 120.98,149.05 156.09,151.51 156.09,196.73 	"/>
	<polygon class="st1" points="120.98,135.5 120.98,149.05 132.18,149.83 132.18,135.98 	"/>
	<polygon class="st1" points="156.09,166.58 168.95,167.84 168.95,183.28 156.09,181.65 	"/>
	<polygon points="62.96,45.92 90.2,41.7 90.2,54.91 100.05,53.67 100.05,67.16 110.26,66.15 110.26,79.93 80.75,82 80.75,69.06 
		62.96,70.81 	"/>
	<polygon points="156.09,121.93 156.09,137.01 182.44,138.14 182.44,122.32 	"/>
	<polygon points="156.09,151.51 156.09,166.58 168.95,167.84 168.95,152.41 	"/>
	<polygon class="st6" points="156.09,181.65 156.09,196.73 196.61,203 196.61,186.78 182.44,184.99 182.44,169.17 168.95,167.84 
		168.95,183.28 	"/>
	<path class="st7" d="M154.72,128.83c-4.97-2.85-10.37-5.3-15.87-7.18c-5.51-1.86-11.26-3.21-17.03-3.28
		c-5.81-0.06-11.63,0.9-17.12,2.84c-5.51,1.92-10.58,4.85-15.44,8.16c-0.62,0.41-1.23,0.82-1.87,1.22c-0.66,0.39-1.26,0.81-2.2,1.07
		c-0.23,0.06-0.57,0.1-0.9,0.01c-0.33-0.08-0.6-0.27-0.78-0.46c-0.38-0.39-0.55-0.79-0.71-1.17c-0.29-0.77-0.42-1.51-0.53-2.25
		c-0.42-2.95-0.35-5.88-0.58-8.72c-0.03-0.35-0.07-0.7-0.14-1.01c-0.03-0.15-0.08-0.31-0.11-0.35c-0.01-0.03,0.01,0.06,0.22,0.09
		c0.03,0,0.03,0,0.13-0.01c0.08-0.02,0.15-0.07,0.16-0.07c0.06-0.04,0.07-0.06,0.07-0.06c0.01-0.01-0.01,0.01-0.02,0.03
		c-0.24,0.52-0.42,1.29-0.59,1.97c-0.34,1.4-0.62,2.82-0.91,4.24c-0.56,2.84-1.07,5.7-1.57,8.56c-1.98,11.44-3.78,22.92-5.53,34.4
		c1.5-11.52,3.05-23.03,4.78-34.52c0.44-2.87,0.89-5.74,1.39-8.61c0.25-1.43,0.51-2.87,0.82-4.3c0.18-0.73,0.28-1.4,0.63-2.21
		c0.03-0.06,0.06-0.12,0.12-0.2c0.03-0.04,0.07-0.09,0.16-0.16c0.02-0.02,0.12-0.08,0.22-0.1c0.12-0.03,0.15-0.02,0.2-0.02
		c0.4,0.04,0.56,0.29,0.64,0.41c0.16,0.27,0.2,0.47,0.26,0.67c0.1,0.4,0.14,0.77,0.19,1.14c0.3,2.94,0.3,5.84,0.76,8.64
		c0.12,0.69,0.27,1.38,0.51,1.97c0.12,0.29,0.27,0.56,0.42,0.69c0.17,0.12,0.12,0.11,0.36,0.07c0.5-0.14,1.15-0.55,1.74-0.93
		c0.6-0.39,1.2-0.81,1.81-1.23c4.8-3.43,9.98-6.58,15.64-8.68c5.64-2.14,11.7-3.27,17.78-3.33c6.14-0.05,12.14,1.23,17.88,3.02
		c5.76,1.84,11.26,4.17,16.6,7.08c0.74,0.4,1.01,1.32,0.59,2.04c-0.41,0.72-1.35,0.98-2.09,0.58c-0.01,0-0.02-0.01-0.02-0.01
		L154.72,128.83z"/>
	<path class="st5" d="M152.83,125.18c-4.85-2.85-10.13-5.3-15.5-7.18c-5.38-1.86-10.99-3.21-16.63-3.28
		c-5.68-0.06-11.36,0.9-16.72,2.84c-5.39,1.92-10.34,4.85-15.08,8.16c-0.6,0.41-1.2,0.82-1.83,1.22c-0.65,0.39-1.23,0.81-2.15,1.07
		c-0.23,0.06-0.56,0.1-0.88,0.01c-0.32-0.08-0.58-0.27-0.77-0.46c-0.37-0.39-0.54-0.79-0.69-1.17c-0.28-0.77-0.41-1.51-0.52-2.25
		c-0.41-2.95-0.34-5.88-0.56-8.72c-0.03-0.35-0.07-0.7-0.14-1.01c-0.03-0.15-0.08-0.31-0.11-0.35c-0.01-0.03,0.01,0.06,0.22,0.09
		c0.03,0,0.03,0,0.12-0.01c0.08-0.02,0.15-0.07,0.16-0.07c0.06-0.04,0.07-0.06,0.07-0.06c0.01-0.01-0.01,0.01-0.02,0.03
		c-0.23,0.52-0.41,1.29-0.58,1.97c-0.33,1.4-0.61,2.82-0.89,4.24c-0.55,2.84-1.04,5.7-1.53,8.56c-1.93,11.44-3.69,22.92-5.4,34.4
		c1.47-11.52,2.98-23.03,4.67-34.52c0.43-2.87,0.87-5.74,1.35-8.61c0.25-1.43,0.5-2.87,0.8-4.3c0.17-0.73,0.28-1.4,0.62-2.21
		c0.03-0.06,0.06-0.12,0.12-0.2c0.03-0.04,0.07-0.09,0.16-0.16c0.02-0.02,0.12-0.08,0.22-0.1c0.12-0.03,0.14-0.02,0.19-0.02
		c0.39,0.04,0.55,0.29,0.63,0.41c0.15,0.27,0.2,0.47,0.25,0.67c0.09,0.4,0.14,0.77,0.18,1.14c0.29,2.94,0.29,5.84,0.74,8.64
		c0.12,0.69,0.26,1.38,0.49,1.97c0.11,0.29,0.27,0.56,0.41,0.69c0.17,0.12,0.11,0.11,0.35,0.07c0.49-0.14,1.13-0.55,1.7-0.93
		c0.59-0.39,1.18-0.81,1.77-1.23c4.69-3.43,9.75-6.58,15.28-8.68c5.51-2.14,11.43-3.27,17.36-3.33c6-0.05,11.86,1.23,17.46,3.02
		c5.62,1.84,10.99,4.17,16.21,7.08c0.72,0.4,0.98,1.32,0.58,2.04s-1.32,0.98-2.04,0.58c-0.01,0-0.02-0.01-0.02-0.01L152.83,125.18z"
		/>
</g>
</svg>
