<?xml version="1.0" encoding="utf-8"?>
<!-- Generator: Adobe Illustrator 23.0.1, SVG Export Plug-In . SVG Version: 6.00 Build 0)  -->
<svg version="1.1" id="Layer_1" xmlns="http://www.w3.org/2000/svg" xmlns:xlink="http://www.w3.org/1999/xlink" x="0px" y="0px"
	 viewBox="0 0 200 200" style="enable-background:new 0 0 200 200;" xml:space="preserve">
<style type="text/css">
	.st0{fill:#FFFFFF;}
</style>
<path class="st0" d="M99.99,0.02c13.8,0,26.79,2.61,38.96,7.81c12.17,5.21,22.78,12.34,31.83,21.38
	c9.05,9.05,16.18,19.66,21.38,31.83c5.21,12.18,7.81,25.16,7.81,38.96c0,13.8-2.61,26.79-7.81,38.96
	c-5.21,12.18-12.34,22.79-21.38,31.83c-9.05,9.05-19.66,16.18-31.83,21.38c-12.18,5.21-25.16,7.81-38.96,7.81
	c-13.8,0-26.79-2.61-38.96-7.81c-12.18-5.21-22.79-12.33-31.83-21.38c-9.05-9.05-16.18-19.66-21.38-31.83
	C2.6,126.8,0,113.81,0,100.01c0-13.8,2.6-26.79,7.81-38.96c5.21-12.17,12.33-22.78,21.38-31.83c9.05-9.05,19.66-16.18,31.83-21.38
	C73.2,2.62,86.19,0.02,99.99,0.02L99.99,0.02z M52.93,62.51c4.95,0,8.85-1.43,11.72-4.3c2.86-2.86,4.3-6.38,4.3-10.55
	c-0.13-4.17-1.6-7.68-4.39-10.55c-2.8-2.86-6.61-4.3-11.42-4.3c-4.95,0-8.89,1.43-11.82,4.3c-2.93,2.87-4.39,6.38-4.39,10.55
	c0,4.17,1.43,7.68,4.3,10.55c2.86,2.87,6.7,4.3,11.52,4.3H52.93z M67.18,159.77V74.23H38.67v85.54H67.18z M169.71,159.77v-49.02
	c0-13.15-3.12-22.88-9.37-29.2c-6.25-6.31-14.06-9.47-23.44-9.47c-7.55,0-13.25,1.63-17.09,4.88c-3.84,3.26-6.67,6.38-8.5,9.37
	V74.23H82.81c0.13,1.95,0.2,7.52,0.2,16.7s0,18.88,0,29.1c0,10.22-0.07,23.47-0.2,39.74h28.51v-47.85c0-1.3,0.06-2.54,0.2-3.71
	c0.13-1.17,0.39-2.21,0.78-3.12c1.04-2.6,2.73-5.01,5.08-7.23c2.34-2.21,5.47-3.32,9.37-3.32c5.21,0,8.92,1.79,11.13,5.37
	c2.21,3.58,3.32,8.3,3.32,14.16v45.7H169.71z M111.32,86.53h-0.2l0.2-0.2V86.53z"/>
</svg>
