<?xml version="1.0" encoding="utf-8"?>
<!-- Generator: Adobe Illustrator 23.0.1, SVG Export Plug-In . SVG Version: 6.00 Build 0)  -->
<svg version="1.1" id="Layer_1" xmlns="http://www.w3.org/2000/svg" xmlns:xlink="http://www.w3.org/1999/xlink" x="0px" y="0px"
	 viewBox="0 0 200 200" style="enable-background:new 0 0 200 200;" xml:space="preserve">
<style type="text/css">
	.st0{fill:#FFFFFF;}
</style>
<path class="st0" d="M199.99,38.33c-2.73,4.17-5.83,8.04-9.28,11.62c-3.45,3.58-7.2,6.81-11.23,9.67c0,0.91,0.03,1.82,0.1,2.73
	c0.06,0.91,0.1,1.76,0.1,2.54c0,13.54-2.54,27.25-7.62,41.11c-5.08,13.87-12.57,26.4-22.46,37.6c-9.9,11.2-22.1,20.35-36.62,27.44
	c-14.52,7.1-31.22,10.64-50.1,10.64c-5.73,0-11.4-0.42-16.99-1.27c-5.6-0.85-11.04-2.05-16.31-3.61
	c-5.27-1.56-10.39-3.48-15.33-5.76c-4.95-2.28-9.7-4.85-14.26-7.71c1.56,0.13,3.16,0.26,4.79,0.39c1.63,0.13,3.29,0.2,4.98,0.2
	c9.63,0,18.78-1.56,27.44-4.69c8.66-3.12,16.5-7.42,23.53-12.89c-8.98-0.26-16.96-3.06-23.93-8.4
	c-6.97-5.34-11.75-12.04-14.36-20.12c1.17,0.26,2.41,0.46,3.71,0.59c1.3,0.13,2.6,0.2,3.91,0.2c1.95,0,3.81-0.13,5.57-0.39
	c1.76-0.26,3.55-0.65,5.37-1.17c-9.37-1.82-17.22-6.48-23.54-13.96C11.16,95.59,8,86.84,8,76.81v-0.39
	c2.73,1.43,5.66,2.61,8.79,3.52c3.13,0.91,6.38,1.43,9.77,1.56c-5.47-3.64-9.86-8.46-13.18-14.45c-3.32-5.99-4.98-12.56-4.98-19.73
	c0-3.77,0.49-7.39,1.46-10.84c0.98-3.45,2.31-6.74,4-9.86c5.08,6.25,10.74,11.91,16.99,16.99c6.25,5.08,12.95,9.47,20.12,13.18
	c7.16,3.71,14.75,6.67,22.75,8.89c8.01,2.22,16.24,3.52,24.71,3.91c-0.26-1.56-0.49-3.13-0.68-4.69c-0.2-1.56-0.29-3.13-0.29-4.69
	c0-5.73,1.07-11.07,3.22-16.02c2.15-4.95,5.08-9.28,8.79-12.99c3.71-3.71,8.04-6.64,12.99-8.79c4.95-2.15,10.28-3.22,16.02-3.22
	c5.86,0,11.39,1.17,16.6,3.52c5.21,2.34,9.63,5.47,13.28,9.38c4.69-0.91,9.21-2.21,13.57-3.91c4.36-1.69,8.56-3.71,12.6-6.05
	c-1.56,4.82-3.91,9.18-7.03,13.09s-6.84,7.1-11.13,9.57c4.17-0.39,8.23-1.14,12.21-2.25C192.54,41.43,196.35,40.03,199.99,38.33
	L199.99,38.33z"/>
</svg>
